<?xml version="1.0" standalone="no"?>
<!DOCTYPE svg PUBLIC "-//W3C//DTD SVG 20010904//EN"
 "http://www.w3.org/TR/2001/REC-SVG-20010904/DTD/svg10.dtd">
<svg version="1.0" xmlns="http://www.w3.org/2000/svg"
 width="64.000000pt" height="64.000000pt" viewBox="0 0 262.000000 262.000000"
 preserveAspectRatio="xMidYMid meet">

<g transform="translate(0.000000,262.000000) scale(0.100000,-0.100000)"
fill="#000000" stroke="none">
<path d="M695 2353 c-46 -24 -76 -54 -96 -98 -37 -80 -16 -167 59 -239 l40
-38 21 40 21 41 -26 38 c-33 49 -28 96 16 136 35 31 75 35 121 11 29 -15 33
-14 65 8 19 13 34 26 34 29 0 13 -58 59 -92 73 -48 20 -124 20 -163 -1z"/>
<path d="M1705 2355 c-31 -17 -85 -64 -85 -75 0 -3 14 -17 31 -29 30 -23 33
-23 59 -7 104 61 209 -57 139 -156 -21 -29 -21 -30 -4 -69 10 -21 21 -39 24
-39 13 0 79 75 97 110 41 81 10 196 -67 247 -52 34 -147 43 -194 18z"/>
<path d="M1163 2285 c-102 -22 -189 -71 -269 -151 -111 -109 -164 -238 -164
-393 0 -58 -6 -81 -37 -147 -47 -103 -50 -174 -9 -257 49 -101 131 -147 263
-147 l74 0 -21 29 c-45 65 -61 149 -40 221 9 31 8 37 -12 50 -53 35 -89 75
-112 123 -36 72 -42 131 -22 201 55 187 292 249 427 111 l44 -44 27 34 c69 83
205 110 306 59 93 -46 141 -127 142 -234 0 -99 -40 -173 -129 -240 -33 -26
-34 -26 -23 -75 16 -77 -4 -160 -51 -212 l-20 -23 84 0 c101 0 164 25 220 87
79 87 89 193 31 317 -25 53 -32 82 -32 130 -1 370 -324 638 -677 561z"/>
<path d="M984 1911 c-23 -10 -54 -36 -70 -57 -26 -34 -29 -45 -29 -113 0 -66
4 -81 27 -114 14 -22 42 -50 62 -64 l37 -24 32 28 c18 16 47 35 65 42 18 8 32
21 32 30 0 25 41 60 79 67 33 7 33 7 26 53 -12 79 -48 126 -117 156 -49 20
-94 19 -144 -4z m120 -112 c49 -39 22 -129 -40 -129 -37 0 -74 37 -74 75 0 36
36 75 70 75 10 0 29 -9 44 -21z"/>
<path d="M1445 1920 c-65 -20 -125 -104 -125 -174 0 -30 3 -34 34 -40 37 -7
59 -27 75 -69 6 -15 17 -27 25 -27 8 0 35 -15 60 -34 l45 -35 32 22 c19 12 47
42 64 65 26 38 30 52 30 111 0 76 -22 120 -80 160 -37 25 -115 35 -160 21z
m118 -132 c9 -11 17 -31 17 -45 0 -32 -42 -73 -75 -73 -31 0 -75 41 -75 70 0
71 86 103 133 48z"/>
<path d="M2042 1813 c-42 -84 -54 -141 -50 -237 3 -76 9 -102 35 -156 17 -36
44 -81 61 -100 l30 -35 16 40 c10 22 31 54 48 72 31 32 31 33 24 107 -4 41
-14 99 -22 128 -19 64 -78 180 -104 203 -18 16 -20 15 -38 -22z"/>
<path d="M2344 1771 c-23 -16 -54 -45 -68 -64 l-26 -33 15 -70 c8 -38 15 -86
15 -107 0 -50 24 -47 61 8 39 57 50 107 47 208 l-3 89 -41 -31z"/>
<path d="M1210 1623 c0 -16 56 -63 75 -63 23 0 80 52 68 63 -9 9 -143 9 -143
0z"/>
<path d="M1122 1533 c-71 -35 -112 -127 -92 -204 13 -48 64 -107 107 -125 21
-9 74 -14 148 -14 94 0 123 4 153 19 111 56 137 196 54 284 -15 16 -39 35 -54
43 -25 13 -30 12 -73 -18 l-45 -32 0 -73 c0 -72 1 -73 21 -62 11 6 28 24 37
40 19 32 20 33 56 19 37 -14 32 -36 -17 -85 -79 -80 -190 -82 -267 -5 -52 52
-56 76 -17 90 28 9 33 8 60 -25 45 -55 57 -47 57 35 0 66 -1 70 -28 84 -16 8
-34 22 -41 30 -16 20 -18 20 -59 -1z"/>
<path d="M2313 1390 c-49 -11 -81 -36 -103 -80 l-21 -40 43 6 c57 9 90 26 122
64 45 54 34 68 -41 50z"/>
<path d="M1955 1314 c-20 -49 -69 -109 -110 -134 l-34 -21 48 -62 c26 -35 62
-100 80 -146 19 -45 37 -79 41 -74 10 10 28 161 36 295 6 98 5 109 -15 142
-13 20 -24 36 -27 36 -2 0 -10 -16 -19 -36z"/>
<path d="M2090 1158 c0 -54 1 -56 31 -62 49 -9 49 -9 49 44 0 48 -1 50 -28 50
-15 0 -33 5 -40 12 -9 9 -12 0 -12 -44z"/>
<path d="M627 980 c-145 -195 -163 -236 -155 -352 12 -162 136 -298 294 -323
38 -6 42 -4 48 19 15 61 104 125 174 126 36 0 37 2 20 33 -7 12 -26 65 -43
117 -31 93 -33 96 -77 118 -91 46 -214 26 -291 -46 l-27 -26 -27 27 -27 27 34
30 c101 87 233 110 356 63 12 -4 14 10 12 83 l-3 89 35 0 35 0 6 -105 c9 -155
53 -300 125 -421 l34 -57 117 44 c65 25 118 46 119 47 1 1 -13 78 -32 171 -39
192 -40 212 -18 264 59 141 242 175 337 63 42 -51 66 -176 49 -263 -10 -51 3
-84 55 -140 l25 -26 32 61 c23 46 43 70 78 92 26 17 47 33 47 37 1 4 -31 73
-70 154 -44 91 -86 163 -111 190 l-41 44 -446 0 c-362 1 -454 4 -486 15 -22 8
-42 15 -45 15 -3 0 -63 -77 -133 -170z"/>
<path d="M2076 999 c-13 -68 -9 -77 37 -86 l42 -9 6 51 c6 51 -1 65 -33 65 -9
0 -23 2 -31 6 -10 3 -16 -4 -21 -27z"/>
<path d="M1475 956 c-16 -7 -38 -22 -48 -33 -38 -43 -38 -74 0 -263 l36 -178
31 -5 c42 -6 68 19 114 111 32 66 37 85 40 167 5 115 -15 172 -71 198 -42 20
-62 21 -102 3z"/>
<path d="M2057 843 c-2 -4 -8 -29 -11 -55 l-7 -48 33 0 c18 0 43 -3 54 -6 20
-5 22 -1 25 45 4 49 3 51 -26 57 -16 3 -37 8 -47 10 -9 3 -18 1 -21 -3z"/>
<path d="M314 810 c-34 -13 -64 -59 -64 -97 0 -70 43 -113 115 -113 l35 0 0
63 c0 34 5 78 10 97 8 29 7 37 -7 48 -19 14 -58 15 -89 2z"/>
<path d="M2075 644 c18 -28 18 -29 -29 -55 -15 -9 -21 -8 -27 3 -5 8 -17 25
-27 38 l-18 23 -37 -33 c-20 -18 -37 -36 -37 -41 0 -5 23 -20 50 -34 28 -14
50 -27 50 -30 0 -13 -24 -55 -32 -55 -5 0 -26 9 -48 20 -45 23 -52 18 -36 -29
16 -49 54 -74 111 -73 91 2 165 74 173 167 4 52 3 56 -31 90 -19 19 -45 35
-57 35 -22 0 -22 -1 -5 -26z"/>
<path d="M1300 361 c-73 -28 -126 -54 -128 -63 -4 -21 36 -68 59 -68 15 0 19
7 19 35 0 33 2 35 35 35 33 0 35 -2 35 -35 0 -33 2 -35 35 -35 33 0 35 2 35
35 0 34 1 35 40 35 39 0 40 -1 40 -35 0 -42 9 -44 44 -9 37 37 36 91 -2 127
-38 37 -65 34 -212 -22z"/>
<path d="M953 369 c-45 -13 -75 -54 -71 -98 3 -33 6 -36 36 -39 31 -3 32 -2
32 32 0 34 2 36 35 36 33 0 35 -2 35 -35 0 -33 2 -35 33 -35 49 0 56 9 47 62
-12 82 -54 104 -147 77z"/>
<path d="M1806 305 c-25 -31 -44 -61 -40 -66 3 -5 49 -9 104 -9 l98 0 21 35
20 35 -25 0 c-30 0 -92 25 -115 46 -15 14 -21 10 -63 -41z"/>
</g>
</svg>
